<svg xmlns="http://www.w3.org/2000/svg" xmlns:xlink="http://www.w3.org/1999/xlink" xmlns:lucid="lucid" width="1800" height="780"><g transform="translate(-20 20)" lucid:page-tab-id="0_0"><path d="M0 0h1870.87v1322.84H0z" fill="#fff"/><path d="M40 6a6 6 0 0 1 6-6h748a6 6 0 0 1 6 6v48a6 6 0 0 1-6 6H46a6 6 0 0 1-6-6z" stroke="#000" stroke-opacity="0" stroke-width="3" fill="#fff" fill-opacity="0"/><use xlink:href="#a" transform="matrix(1,0,0,1,45,5) translate(0 31.138888888888886)"/><use xlink:href="#b" transform="matrix(1,0,0,1,45,5) translate(93.07407407407406 31.138888888888886)"/><use xlink:href="#c" transform="matrix(1,0,0,1,45,5) translate(132.82716049382714 31.138888888888886)"/><use xlink:href="#d" transform="matrix(1,0,0,1,45,5) translate(227.6296296296296 31.138888888888886)"/><use xlink:href="#e" transform="matrix(1,0,0,1,45,5) translate(349.99999999999994 31.138888888888886)"/><use xlink:href="#f" transform="matrix(1,0,0,1,45,5) translate(465.54320987654313 31.138888888888886)"/><path d="M1560 6a6 6 0 0 1 6-6h228a6 6 0 0 1 6 6v48a6 6 0 0 1-6 6h-228a6 6 0 0 1-6-6z" stroke="#000" stroke-opacity="0" stroke-width="3" fill="#fff" fill-opacity="0"/><use xlink:href="#g" transform="matrix(1,0,0,1,1565,5) translate(99.38271604938282 30.277777777777768)"/><use xlink:href="#h" transform="matrix(1,0,0,1,1565,5) translate(191.79012345679016 30.277777777777768)"/><path d="M40.75 61.5a.75.75 0 0 1 .75-.75h1757a.75.75 0 0 1 .75.75.75.75 0 0 1-.75.75H41.5a.75.75 0 0 1-.75-.75z" stroke="#5e5e5e" stroke-width="1.5" fill="none"/><path d="M340 280c0 22.1-17.9 40-40 40s-40-17.9-40-40 17.9-40 40-40 40 17.9 40 40z" stroke="#5e5e5e" stroke-width="3" fill="#fff"/><use xlink:href="#i" transform="matrix(1,0,0,1,265,245) translate(27.592592592592595 39.65277777777778)"/><path d="M220 426a6 6 0 0 1 6-6h148a6 6 0 0 1 6 6v108a6 6 0 0 1-6 6H226a6 6 0 0 1-6-6z" stroke="#5e5e5e" stroke-width="3" fill="#edf5ff"/><use xlink:href="#j" transform="matrix(1,0,0,1,232,432) translate(-4.716049382716051 52.44444444444444)"/><path d="M300 322.5V400" stroke="#5e5e5e" stroke-width="2" fill="none"/><path d="M299.98 321.5l1.02-.03v1.06h-2v-1.1z" stroke="#5e5e5e" stroke-width=".05" fill="#5e5e5e"/><path d="M300 415.26L295.37 401h9.26z" stroke="#5e5e5e" stroke-width="2" fill="#5e5e5e"/><path d="M555.2 423.6a8 8 0 0 1 9.6 0l70.4 52.8a4.5 4.5 0 0 1 0 7.2l-70.4 52.8a8 8 0 0 1-9.6 0l-70.4-52.8a4.5 4.5 0 0 1 0-7.2z" stroke="#5e5e5e" stroke-width="3" fill="#ffe342"/><use xlink:href="#k" transform="matrix(1,0,0,1,485,425) translate(44.85067901234568 59.02777777777778)"/><path d="M382.5 480H463" stroke="#5e5e5e" stroke-width="2" fill="none"/><path d="M382.53 481h-1.03v-2h1.03z" stroke="#5e5e5e" stroke-width=".05" fill="#5e5e5e"/><path d="M478.26 480L464 484.63v-9.26z" stroke="#5e5e5e" stroke-width="2" fill="#5e5e5e"/><path d="M561 419.5h-2v-27.83h2zm0-49.17h-2V360h2z" stroke="#5e5e5e" stroke-width=".05" fill="#5e5e5e"/><path d="M561 420.56l-1-.06-1 .06v-1.1h2z" fill="#5e5e5e"/><path d="M561.02 420.6l-1.02-.08-1.02.07v-1.15H561zm-2-1.1v1.04l.98-.07.98.06v-1.03z" stroke="#5e5e5e" stroke-width=".05" fill="#5e5e5e"/><path d="M564.63 359h-9.26l4.63-14.26z" fill="#5e5e5e"/><path d="M566 360h-12l6-18.5zm-9.26-2h6.52L560 347.97z" stroke="#5e5e5e" stroke-width=".05" fill="#5e5e5e"/><use xlink:href="#l" transform="matrix(1,0,0,1,516.6419753086419,370.33176287218686) translate(0 14.222222222222223)"/><path d="M480 226a6 6 0 0 1 6-6h148a6 6 0 0 1 6 6v108a6 6 0 0 1-6 6H486a6 6 0 0 1-6-6z" stroke="#5e5e5e" stroke-width="3" fill="#fcfcca"/><use xlink:href="#m" transform="matrix(1,0,0,1,492,232) translate(9.481481481481474 53.77777777777778)"/><path d="M561 600h-2v-10.33h2zm0-31.66h-2V540.5h2z" stroke="#5e5e5e" stroke-width=".05" fill="#5e5e5e"/><path d="M560 539.5l1-.06v1.1h-2v-1.1z" fill="#5e5e5e"/><path d="M560 539.48l1.02-.07v1.15H559v-1.14zm-.98 1.02H561v-1.03l-.98.06-.98-.06z" stroke="#5e5e5e" stroke-width=".05" fill="#5e5e5e"/><path d="M560 615.26L555.37 601h9.26z" fill="#5e5e5e"/><path d="M560 618.5l-6-18.5h12zm-3.26-16.5l3.26 10.03 3.26-10.03z" stroke="#5e5e5e" stroke-width=".05" fill="#5e5e5e"/><use xlink:href="#n" transform="matrix(1,0,0,1,528.4938271604938,568.3349037944798) translate(0 14.222222222222223)"/><path d="M480 626a6 6 0 0 1 6-6h148a6 6 0 0 1 6 6v108a6 6 0 0 1-6 6H486a6 6 0 0 1-6-6z" stroke="#5e5e5e" stroke-width="3" fill="#fcfcca"/><use xlink:href="#m" transform="matrix(1,0,0,1,492,632) translate(9.481481481481474 53.77777777777778)"/><path d="M642.5 280H700" stroke="#5e5e5e" stroke-width="2" fill="none"/><path d="M642.53 281h-1.03v-2h1.03z" stroke="#5e5e5e" stroke-width=".05" fill="#5e5e5e"/><path d="M715.26 280L701 284.63v-9.26z" stroke="#5e5e5e" stroke-width="2" fill="#5e5e5e"/><path d="M720 226a6 6 0 0 1 6-6h148a6 6 0 0 1 6 6v108a6 6 0 0 1-6 6H726a6 6 0 0 1-6-6z" stroke="#5e5e5e" stroke-width="3" fill="#edf5ff"/><use xlink:href="#o" transform="matrix(1,0,0,1,732,232) translate(22.47530864197531 26.77777777777778)"/><use xlink:href="#p" transform="matrix(1,0,0,1,732,232) translate(29.820987654320987 53.44444444444445)"/><use xlink:href="#q" transform="matrix(1,0,0,1,732,232) translate(27.382716049382715 80.11111111111111)"/><path d="M642.5 680H700" stroke="#5e5e5e" stroke-width="2" fill="none"/><path d="M642.53 681h-1.03v-2h1.03z" stroke="#5e5e5e" stroke-width=".05" fill="#5e5e5e"/><path d="M715.26 680L701 684.63v-9.26z" stroke="#5e5e5e" stroke-width="2" fill="#5e5e5e"/><path d="M720 626a6 6 0 0 1 6-6h148a6 6 0 0 1 6 6v108a6 6 0 0 1-6 6H726a6 6 0 0 1-6-6z" stroke="#5e5e5e" stroke-width="3" fill="#edf5ff"/><use xlink:href="#r" transform="matrix(1,0,0,1,732,632) translate(5.222222222222221 38.77777777777778)"/><use xlink:href="#p" transform="matrix(1,0,0,1,732,632) translate(54.41975308641975 38.77777777777778)"/><use xlink:href="#q" transform="matrix(1,0,0,1,732,632) translate(27.382716049382715 65.44444444444446)"/><path d="M900 426a6 6 0 0 1 6-6h148a6 6 0 0 1 6 6v108a6 6 0 0 1-6 6H906a6 6 0 0 1-6-6z" stroke="#5e5e5e" stroke-width="3" fill="#edf5ff"/><use xlink:href="#s" transform="matrix(1,0,0,1,912,432) translate(28.524691358024697 53.77777777777778)"/><path d="M882.5 680h90.17a6 6 0 0 0 6-6V560" stroke="#5e5e5e" stroke-width="2" fill="none"/><path d="M882.53 681h-1.03v-2h1.03z" stroke="#5e5e5e" stroke-width=".05" fill="#5e5e5e"/><path d="M978.67 544.74L983.3 559h-9.27z" stroke="#5e5e5e" stroke-width="2" fill="#5e5e5e"/><path d="M882.5 280H974a6 6 0 0 1 6 6v114" stroke="#5e5e5e" stroke-width="2" fill="none"/><path d="M882.53 281h-1.03v-2h1.03z" stroke="#5e5e5e" stroke-width=".05" fill="#5e5e5e"/><path d="M980 415.26L975.37 401h9.26z" stroke="#5e5e5e" stroke-width="2" fill="#5e5e5e"/><path d="M1420 505c0 6.63-26.86 12-60 12s-60-5.37-60-12v-96c0-6.63 26.86-12 60-12s60 5.37 60 12z" stroke="#5e5e5e" stroke-width="3" fill="#ced4db"/><path d="M1420 409c0 6.63-26.86 12-60 12s-60-5.37-60-12" stroke="#5e5e5e" stroke-width="3" fill="none"/><use xlink:href="#t" transform="matrix(1,0,0,1,1305,426) translate(30.987654320987655 47.34027777777778)"/><path d="M1130.45 225.8a7.8 7.8 0 0 1 7.55-5.8h196a4.6 4.6 0 0 1 4.45 5.8l-28.9 108.4a7.8 7.8 0 0 1-7.55 5.8h-196a4.6 4.6 0 0 1-4.45-5.8z" stroke="#5e5e5e" stroke-width="3" fill="#d7faf5"/><use xlink:href="#u" transform="matrix(1,0,0,1,1105,225) translate(36.70870370370371 59.02777777777778)"/><path d="M1130.45 625.8a7.8 7.8 0 0 1 7.55-5.8h196a4.6 4.6 0 0 1 4.45 5.8l-28.9 108.4a7.8 7.8 0 0 1-7.55 5.8h-196a4.6 4.6 0 0 1-4.45-5.8z" stroke="#5e5e5e" stroke-width="3" fill="#d7faf5"/><use xlink:href="#v" transform="matrix(1,0,0,1,1105,625) translate(39.70870370370372 45.27777777777778)"/><use xlink:href="#w" transform="matrix(1,0,0,1,1105,625) translate(72.02969135802469 71.94444444444446)"/><path d="M1062.5 461.33h19.47a6 6 0 0 0 6-6V286a6 6 0 0 1 6-6h1.98" stroke="#5e5e5e" stroke-width="2" fill="none"/><path d="M1062.53 462.33h-1.03v-2h1.03z" stroke="#5e5e5e" stroke-width=".05" fill="#5e5e5e"/><path d="M1111.2 280l-14.25 4.63v-9.26z" stroke="#5e5e5e" stroke-width="2" fill="#5e5e5e"/><path d="M1062.5 500h19.47a6 6 0 0 1 6 6v168a6 6 0 0 0 6 6h1.98" stroke="#5e5e5e" stroke-width="2" fill="none"/><path d="M1062.53 501h-1.03v-2h1.03z" stroke="#5e5e5e" stroke-width=".05" fill="#5e5e5e"/><path d="M1111.2 680l-14.25 4.63v-9.26z" stroke="#5e5e5e" stroke-width="2" fill="#5e5e5e"/><path d="M1326.55 280H1354a6 6 0 0 1 6 6v91" stroke="#5e5e5e" stroke-width="2" fill="none"/><path d="M1326.58 281h-1.3l.54-2h.76z" stroke="#5e5e5e" stroke-width=".05" fill="#5e5e5e"/><path d="M1360 392.26l-4.63-14.26h9.27z" stroke="#5e5e5e" stroke-width="2" fill="#5e5e5e"/><path d="M1326.55 680H1354a6 6 0 0 0 6-6V537" stroke="#5e5e5e" stroke-width="2" fill="none"/><path d="M1326.58 681h-1.3l.54-2h.76z" stroke="#5e5e5e" stroke-width=".05" fill="#5e5e5e"/><path d="M1360 521.74l4.63 14.26h-9.27z" stroke="#5e5e5e" stroke-width="2" fill="#5e5e5e"/><path d="M1580 457c0 22.1-17.9 40-40 40s-40-17.9-40-40 17.9-40 40-40 40 17.9 40 40z" stroke="#5e5e5e" stroke-width="3" fill="#fff"/><g><use xlink:href="#x" transform="matrix(1,0,0,1,1505,422) translate(27.592592592592595 39.65277777777778)"/></g><path d="M1422.5 457h57.5" stroke="#5e5e5e" stroke-width="2" fill="none"/><path d="M1422.53 458h-1.03v-2h1.03z" stroke="#5e5e5e" stroke-width=".05" fill="#5e5e5e"/><path d="M1495.26 457l-14.26 4.63v-9.26z" stroke="#5e5e5e" stroke-width="2" fill="#5e5e5e"/><path d="M40 69.3a6 6 0 0 1 6-6h1748a6 6 0 0 1 6 6v80.13a6 6 0 0 1-6 6H46a6 6 0 0 1-6-6z" stroke="#000" stroke-opacity="0" stroke-width="3" fill="#fff" fill-opacity="0"/><g><use xlink:href="#y" transform="matrix(1,0,0,1,45,68.30000000000001) translate(0 32.98472222222222)"/><use xlink:href="#z" transform="matrix(1,0,0,1,45,68.30000000000001) translate(21.77777777777777 32.98472222222222)"/><use xlink:href="#A" transform="matrix(1,0,0,1,45,68.30000000000001) translate(134.23580246913576 32.98472222222222)"/><use xlink:href="#B" transform="matrix(1,0,0,1,45,68.30000000000001) translate(205.49753086419747 32.98472222222222)"/><use xlink:href="#C" transform="matrix(1,0,0,1,45,68.30000000000001) translate(271.9197530864197 32.98472222222222)"/><use xlink:href="#D" transform="matrix(1,0,0,1,45,68.30000000000001) translate(308.216049382716 32.98472222222222)"/><use xlink:href="#E" transform="matrix(1,0,0,1,45,68.30000000000001) translate(372.52098765432095 32.98472222222222)"/><use xlink:href="#F" transform="matrix(1,0,0,1,45,68.30000000000001) translate(454.73209876543206 32.98472222222222)"/><use xlink:href="#G" transform="matrix(1,0,0,1,45,68.30000000000001) translate(490.78641975308636 32.98472222222222)"/><use xlink:href="#H" transform="matrix(1,0,0,1,45,68.30000000000001) translate(521.0333333333333 32.98472222222222)"/><use xlink:href="#I" transform="matrix(1,0,0,1,45,68.30000000000001) translate(592.416049382716 32.98472222222222)"/><use xlink:href="#C" transform="matrix(1,0,0,1,45,68.30000000000001) translate(621.453086419753 32.98472222222222)"/><use xlink:href="#J" transform="matrix(1,0,0,1,45,68.30000000000001) translate(657.7493827160494 32.98472222222222)"/><use xlink:href="#K" transform="matrix(1,0,0,1,45,68.30000000000001) translate(736.3308641975308 32.98472222222222)"/><use xlink:href="#L" transform="matrix(1,0,0,1,45,68.30000000000001) translate(814.8518518518517 32.98472222222222)"/><use xlink:href="#M" transform="matrix(1,0,0,1,45,68.30000000000001) translate(857.1975308641975 32.98472222222222)"/><use xlink:href="#N" transform="matrix(1,0,0,1,45,68.30000000000001) translate(955.0765432098765 32.98472222222222)"/><use xlink:href="#C" transform="matrix(1,0,0,1,45,68.30000000000001) translate(978.0037037037036 32.98472222222222)"/><use xlink:href="#O" transform="matrix(1,0,0,1,45,68.30000000000001) translate(1014.3 32.98472222222222)"/><use xlink:href="#P" transform="matrix(1,0,0,1,45,68.30000000000001) translate(1124.2172839506172 32.98472222222222)"/><use xlink:href="#Q" transform="matrix(1,0,0,1,45,68.30000000000001) translate(0 60.98472222222222)"/><use xlink:href="#R" transform="matrix(1,0,0,1,45,68.30000000000001) translate(21.77777777777777 60.98472222222222)"/><use xlink:href="#S" transform="matrix(1,0,0,1,45,68.30000000000001) translate(65.27283950617282 60.98472222222222)"/><use xlink:href="#T" transform="matrix(1,0,0,1,45,68.30000000000001) translate(113.66790123456786 60.98472222222222)"/><use xlink:href="#U" transform="matrix(1,0,0,1,45,68.30000000000001) translate(204.2876543209876 60.98472222222222)"/><use xlink:href="#V" transform="matrix(1,0,0,1,45,68.30000000000001) translate(226.00493827160489 60.98472222222222)"/><use xlink:href="#L" transform="matrix(1,0,0,1,45,68.30000000000001) translate(337.253086419753 60.98472222222222)"/><use xlink:href="#W" transform="matrix(1,0,0,1,45,68.30000000000001) translate(379.5987654320987 60.98472222222222)"/><use xlink:href="#X" transform="matrix(1,0,0,1,45,68.30000000000001) translate(443.5407407407406 60.98472222222222)"/><use xlink:href="#Y" transform="matrix(1,0,0,1,45,68.30000000000001) translate(554.7283950617282 60.98472222222222)"/><use xlink:href="#Z" transform="matrix(1,0,0,1,45,68.30000000000001) translate(643.0493827160492 60.98472222222222)"/><use xlink:href="#C" transform="matrix(1,0,0,1,45,68.30000000000001) translate(692.5333333333331 60.98472222222222)"/><use xlink:href="#aa" transform="matrix(1,0,0,1,45,68.30000000000001) translate(728.8296296296294 60.98472222222222)"/><use xlink:href="#ab" transform="matrix(1,0,0,1,45,68.30000000000001) translate(801.8456790123454 60.98472222222222)"/><use xlink:href="#ac" transform="matrix(1,0,0,1,45,68.30000000000001) translate(869.4777777777774 60.98472222222222)"/><use xlink:href="#ad" transform="matrix(1,0,0,1,45,68.30000000000001) translate(957.5567901234564 60.98472222222222)"/><use xlink:href="#ae" transform="matrix(1,0,0,1,45,68.30000000000001) translate(1111.6950617283946 60.98472222222222)"/><use xlink:href="#C" transform="matrix(1,0,0,1,45,68.30000000000001) translate(1214.2925925925922 60.98472222222222)"/><use xlink:href="#af" transform="matrix(1,0,0,1,45,68.30000000000001) translate(1250.5888888888885 60.98472222222222)"/><use xlink:href="#ag" transform="matrix(1,0,0,1,45,68.30000000000001) translate(1289.607407407407 60.98472222222222)"/><use xlink:href="#E" transform="matrix(1,0,0,1,45,68.30000000000001) translate(1345.7456790123451 60.98472222222222)"/><use xlink:href="#ah" transform="matrix(1,0,0,1,45,68.30000000000001) translate(1427.9567901234561 60.98472222222222)"/><use xlink:href="#ai" transform="matrix(1,0,0,1,45,68.30000000000001) translate(1485.9703703703697 60.98472222222222)"/></g><defs><path fill="#333" d="M24 0v-248h195v40H76v63h132v40H76v65h150V0H24" id="aj"/><path fill="#333" d="M67-125c0 53 21 87 73 88 37 1 54-22 65-47l45 17C233-25 199 4 140 4 58 4 20-42 15-125 8-235 124-281 211-232c18 10 29 29 36 50l-46 12c-8-25-30-41-62-41-52 0-71 34-72 86" id="ak"/><path fill="#333" d="M240-174c0 40-23 61-54 70L253 0h-59l-57-94H76V0H24v-248c93 4 217-23 216 74zM76-134c48-2 112 12 112-38 0-48-66-32-112-35v73" id="al"/><path fill="#333" d="M136-208V0H84v-208H4v-40h212v40h-80" id="am"/><g id="a"><use transform="matrix(0.08641975308641973,0,0,0.08641975308641973,0,0)" xlink:href="#aj"/><use transform="matrix(0.08641975308641973,0,0,0.08641975308641973,20.740740740740737,0)" xlink:href="#ak"/><use transform="matrix(0.08641975308641973,0,0,0.08641975308641973,43.12345679012345,0)" xlink:href="#al"/><use transform="matrix(0.08641975308641973,0,0,0.08641975308641973,65.50617283950616,0)" xlink:href="#am"/></g><path fill="#333" d="M0-79v-35h360v35H0" id="an"/><use transform="matrix(0.08641975308641973,0,0,0.08641975308641973,0,0)" xlink:href="#an" id="b"/><path fill="#333" d="M135-194c87-1 58 113 63 194h-50c-7-57 23-157-34-157-59 0-34 97-39 157H25l-1-190h47c2 12-1 28 3 38 12-26 28-41 61-42" id="ao"/><path fill="#333" d="M115-3C79 11 28 4 28-45v-112H4v-33h27l15-45h31v45h36v33H77v99c-1 23 16 31 38 25v30" id="ap"/><path fill="#333" d="M25-224v-37h50v37H25zM25 0v-190h50V0H25" id="aq"/><path fill="#333" d="M123 10C108 53 80 86 19 72V37c35 8 53-11 59-39L3-190h52l48 148c12-52 28-100 44-148h51" id="ar"/><g id="c"><use transform="matrix(0.08641975308641973,0,0,0.08641975308641973,0,0)" xlink:href="#aj"/><use transform="matrix(0.08641975308641973,0,0,0.08641975308641973,20.740740740740737,0)" xlink:href="#ao"/><use transform="matrix(0.08641975308641973,0,0,0.08641975308641973,39.66666666666666,0)" xlink:href="#ap"/><use transform="matrix(0.08641975308641973,0,0,0.08641975308641973,49.950617283950606,0)" xlink:href="#aq"/><use transform="matrix(0.08641975308641973,0,0,0.08641975308641973,58.59259259259258,0)" xlink:href="#ap"/><use transform="matrix(0.08641975308641973,0,0,0.08641975308641973,68.87654320987653,0)" xlink:href="#ar"/></g><path fill="#333" d="M114-157C55-157 80-60 75 0H25v-261h50l-1 109c12-26 28-41 61-42 86-1 58 113 63 194h-50c-7-57 23-157-34-157" id="as"/><path fill="#333" d="M133-34C117-15 103 5 69 4 32 3 11-16 11-54c-1-60 55-63 116-61 1-26-3-47-28-47-18 1-26 9-28 27l-52-2c7-38 36-58 82-57s74 22 75 68l1 82c-1 14 12 18 25 15v27c-30 8-71 5-69-32zm-48 3c29 0 43-24 42-57-32 0-66-3-65 30 0 17 8 27 23 27" id="at"/><path fill="#333" d="M195-6C206 82 75 100 31 46c-4-6-6-13-8-21l49-6c3 16 16 24 34 25 40 0 42-37 40-79-11 22-30 35-61 35-53 0-70-43-70-97 0-56 18-96 73-97 30 0 46 14 59 34l2-30h47zm-90-29c32 0 41-27 41-63 0-35-9-62-40-62-32 0-39 29-40 63 0 36 9 62 39 62" id="au"/><path fill="#333" d="M185-48c-13 30-37 53-82 52C43 2 14-33 14-96s30-98 90-98c62 0 83 45 84 108H66c0 31 8 55 39 56 18 0 30-7 34-22zm-45-69c5-46-57-63-70-21-2 6-4 13-4 21h74" id="av"/><g id="d"><use transform="matrix(0.08641975308641973,0,0,0.08641975308641973,0,0)" xlink:href="#ak"/><use transform="matrix(0.08641975308641973,0,0,0.08641975308641973,22.38271604938271,0)" xlink:href="#as"/><use transform="matrix(0.08641975308641973,0,0,0.08641975308641973,41.30864197530863,0)" xlink:href="#at"/><use transform="matrix(0.08641975308641973,0,0,0.08641975308641973,58.59259259259258,0)" xlink:href="#ao"/><use transform="matrix(0.08641975308641973,0,0,0.08641975308641973,77.5185185185185,0)" xlink:href="#au"/><use transform="matrix(0.08641975308641973,0,0,0.08641975308641973,96.44444444444443,0)" xlink:href="#av"/></g><path fill="#333" d="M190-63c-7 42-38 67-86 67-59 0-84-38-90-98-12-110 154-137 174-36l-49 2c-2-19-15-32-35-32-30 0-35 28-38 64-6 74 65 87 74 30" id="aw"/><path fill="#333" d="M110-194c64 0 96 36 96 99 0 64-35 99-97 99-61 0-95-36-95-99 0-62 34-99 96-99zm-1 164c35 0 45-28 45-65 0-40-10-65-43-65-34 0-45 26-45 65 0 36 10 65 43 65" id="ax"/><path fill="#333" d="M135-150c-39-12-60 13-60 57V0H25l-1-190h47c2 13-1 29 3 40 6-28 27-53 61-41v41" id="ay"/><path fill="#333" d="M88-194c31-1 46 15 58 34l-1-101h50l1 261h-48c-2-10 0-23-3-31C134-8 116 4 84 4 32 4 16-41 15-95c0-56 19-97 73-99zm17 164c33 0 40-30 41-66 1-37-9-64-41-64s-38 30-39 65c0 43 13 65 39 65" id="az"/><g id="e"><use transform="matrix(0.08641975308641973,0,0,0.08641975308641973,0,0)" xlink:href="#al"/><use transform="matrix(0.08641975308641973,0,0,0.08641975308641973,22.38271604938271,0)" xlink:href="#av"/><use transform="matrix(0.08641975308641973,0,0,0.08641975308641973,39.66666666666666,0)" xlink:href="#aw"/><use transform="matrix(0.08641975308641973,0,0,0.08641975308641973,56.950617283950606,0)" xlink:href="#ax"/><use transform="matrix(0.08641975308641973,0,0,0.08641975308641973,75.87654320987653,0)" xlink:href="#ay"/><use transform="matrix(0.08641975308641973,0,0,0.08641975308641973,87.97530864197529,0)" xlink:href="#az"/></g><path fill="#333" d="M147 0L96-86 75-71V0H25v-261h50v150l67-79h53l-66 74L201 0h-54" id="aA"/><g id="f"><use transform="matrix(0.08641975308641973,0,0,0.08641975308641973,0,0)" xlink:href="#am"/><use transform="matrix(0.08641975308641973,0,0,0.08641975308641973,17.197530864197525,0)" xlink:href="#ay"/><use transform="matrix(0.08641975308641973,0,0,0.08641975308641973,29.296296296296283,0)" xlink:href="#at"/><use transform="matrix(0.08641975308641973,0,0,0.08641975308641973,46.58024691358024,0)" xlink:href="#aw"/><use transform="matrix(0.08641975308641973,0,0,0.08641975308641973,63.864197530864175,0)" xlink:href="#aA"/><use transform="matrix(0.08641975308641973,0,0,0.08641975308641973,81.14814814814812,0)" xlink:href="#av"/><use transform="matrix(0.08641975308641973,0,0,0.08641975308641973,98.43209876543207,0)" xlink:href="#ay"/></g><path fill="#333" d="M67-93c0 74 22 123 53 168H70C40 30 18-18 18-93s22-123 52-168h50c-32 44-53 94-53 168" id="aB"/><path fill="#333" d="M128 0H69L1-190h53L99-40l48-150h52" id="aC"/><path fill="#333" d="M137-138c1-29-70-34-71-4 15 46 118 7 119 86 1 83-164 76-172 9l43-7c4 19 20 25 44 25 33 8 57-30 24-41C81-84 22-81 20-136c-2-80 154-74 161-7" id="aD"/><g id="g"><use transform="matrix(0.06172839506172835,0,0,0.06172839506172835,0,0)" xlink:href="#aB"/><use transform="matrix(0.06172839506172835,0,0,0.06172839506172835,7.345679012345673,0)" xlink:href="#aC"/><use transform="matrix(0.06172839506172835,0,0,0.06172839506172835,19.691358024691343,0)" xlink:href="#av"/><use transform="matrix(0.06172839506172835,0,0,0.06172839506172835,32.03703703703701,0)" xlink:href="#ay"/><use transform="matrix(0.06172839506172835,0,0,0.06172839506172835,40.67901234567898,0)" xlink:href="#aD"/><use transform="matrix(0.06172839506172835,0,0,0.06172839506172835,53.02469135802465,0)" xlink:href="#aq"/><use transform="matrix(0.06172839506172835,0,0,0.06172839506172835,59.19753086419748,0)" xlink:href="#ax"/><use transform="matrix(0.06172839506172835,0,0,0.06172839506172835,72.716049382716,0)" xlink:href="#ao"/></g><path fill="#333" d="M23 0v-37h61v-169l-59 37v-38l62-41h46v211h57V0H23" id="aE"/><path fill="#333" d="M24 0v-54h51V0H24" id="aF"/><path fill="#333" d="M101-251c68 0 84 54 84 127C185-50 166 4 99 4S15-52 14-124c-1-75 17-127 87-127zm-1 216c37-5 36-46 36-89s4-89-36-89c-39 0-36 45-36 89 0 43-3 85 36 89" id="aG"/><path fill="#333" d="M102-93c0 74-22 123-52 168H0C30 29 54-18 53-93c0-74-22-123-53-168h50c30 45 52 94 52 168" id="aH"/><g id="h"><use transform="matrix(0.06172839506172835,0,0,0.06172839506172835,0,0)" xlink:href="#aE"/><use transform="matrix(0.06172839506172835,0,0,0.06172839506172835,12.34567901234567,0)" xlink:href="#aF"/><use transform="matrix(0.06172839506172835,0,0,0.06172839506172835,18.518518518518505,0)" xlink:href="#aG"/><use transform="matrix(0.06172839506172835,0,0,0.06172839506172835,30.864197530864175,0)" xlink:href="#aH"/></g><path fill="#333" d="M205 0l-28-72H64L36 0H1l101-248h38L239 0h-34zm-38-99l-47-123c-12 45-31 82-46 123h93" id="aI"/><use transform="matrix(0.06172839506172839,0,0,0.06172839506172839,0,0)" xlink:href="#aI" id="i"/><path fill="#333" d="M169-182c-1-43-94-46-97-3 18 66 151 10 154 114 3 95-165 93-204 36-6-8-10-19-12-30l50-8c3 46 112 56 116 5-17-69-150-10-154-114-4-87 153-88 188-35 5 8 8 18 10 28" id="aJ"/><g id="j"><use transform="matrix(0.06172839506172839,0,0,0.06172839506172839,0,0)" xlink:href="#aJ"/><use transform="matrix(0.06172839506172839,0,0,0.06172839506172839,14.814814814814813,0)" xlink:href="#at"/><use transform="matrix(0.06172839506172839,0,0,0.06172839506172839,27.160493827160494,0)" xlink:href="#aC"/><use transform="matrix(0.06172839506172839,0,0,0.06172839506172839,39.50617283950617,0)" xlink:href="#av"/><use transform="matrix(0.06172839506172839,0,0,0.06172839506172839,51.85185185185185,0)" xlink:href="#ak"/><use transform="matrix(0.06172839506172839,0,0,0.06172839506172839,67.8395061728395,0)" xlink:href="#as"/><use transform="matrix(0.06172839506172839,0,0,0.06172839506172839,81.35802469135803,0)" xlink:href="#at"/><use transform="matrix(0.06172839506172839,0,0,0.06172839506172839,93.70370370370371,0)" xlink:href="#ao"/><use transform="matrix(0.06172839506172839,0,0,0.06172839506172839,107.22222222222223,0)" xlink:href="#au"/><use transform="matrix(0.06172839506172839,0,0,0.06172839506172839,120.74074074074075,0)" xlink:href="#av"/><use transform="matrix(0.06172839506172839,0,0,0.06172839506172839,133.08641975308643,0)" xlink:href="#aD"/></g><g id="k"><use transform="matrix(0.06172839506172839,0,0,0.06172839506172839,0,0)" xlink:href="#aj"/><use transform="matrix(0.06172839506172839,0,0,0.06172839506172839,14.814814814814813,0)" xlink:href="#ak"/><use transform="matrix(0.06172839506172839,0,0,0.06172839506172839,30.80246913580247,0)" xlink:href="#al"/><use transform="matrix(0.06172839506172839,0,0,0.06172839506172839,46.79012345679012,0)" xlink:href="#am"/></g><path fill="#333" d="M230 0l2-204L168 0h-37L68-204 70 0H24v-248h70l56 185 57-185h69V0h-46" id="aK"/><path fill="#333" d="M140-251c80 0 125 45 125 126S219 4 139 4C58 4 15-44 15-125s44-126 125-126zm-1 214c52 0 73-35 73-88 0-50-21-86-72-86-52 0-73 35-73 86s22 88 72 88" id="aL"/><path fill="#333" d="M24-248c120-7 223 5 221 122C244-46 201 0 124 0H24v-248zM76-40c74 7 117-18 117-86 0-67-45-88-117-82v168" id="aM"/><path fill="#333" d="M24 0v-248h52V0H24" id="aN"/><path fill="#333" d="M76-208v77h127v40H76V0H24v-248h183v40H76" id="aO"/><g id="l"><use transform="matrix(0.04938271604938272,0,0,0.04938271604938272,0,0)" xlink:href="#aK"/><use transform="matrix(0.04938271604938272,0,0,0.04938271604938272,14.765432098765434,0)" xlink:href="#aL"/><use transform="matrix(0.04938271604938272,0,0,0.04938271604938272,28.592592592592595,0)" xlink:href="#aM"/><use transform="matrix(0.04938271604938272,0,0,0.04938271604938272,41.38271604938272,0)" xlink:href="#aN"/><use transform="matrix(0.04938271604938272,0,0,0.04938271604938272,46.320987654320994,0)" xlink:href="#aO"/><use transform="matrix(0.04938271604938272,0,0,0.04938271604938272,57.135802469135804,0)" xlink:href="#aN"/><use transform="matrix(0.04938271604938272,0,0,0.04938271604938272,62.074074074074076,0)" xlink:href="#aj"/><use transform="matrix(0.04938271604938272,0,0,0.04938271604938272,73.92592592592594,0)" xlink:href="#aM"/></g><path fill="#333" d="M147 0H94L2-248h55l64 206c17-72 42-137 63-206h54" id="aP"/><path fill="#333" d="M25 0v-261h50V0H25" id="aQ"/><g id="m"><use transform="matrix(0.06172839506172839,0,0,0.06172839506172839,0,0)" xlink:href="#aP"/><use transform="matrix(0.06172839506172839,0,0,0.06172839506172839,13.580246913580245,0)" xlink:href="#at"/><use transform="matrix(0.06172839506172839,0,0,0.06172839506172839,25.925925925925924,0)" xlink:href="#aQ"/><use transform="matrix(0.06172839506172839,0,0,0.06172839506172839,32.098765432098766,0)" xlink:href="#aq"/><use transform="matrix(0.06172839506172839,0,0,0.06172839506172839,38.27160493827161,0)" xlink:href="#az"/><use transform="matrix(0.06172839506172839,0,0,0.06172839506172839,51.79012345679013,0)" xlink:href="#at"/><use transform="matrix(0.06172839506172839,0,0,0.06172839506172839,64.13580246913581,0)" xlink:href="#ap"/><use transform="matrix(0.06172839506172839,0,0,0.06172839506172839,71.4814814814815,0)" xlink:href="#aq"/><use transform="matrix(0.06172839506172839,0,0,0.06172839506172839,77.65432098765433,0)" xlink:href="#ax"/><use transform="matrix(0.06172839506172839,0,0,0.06172839506172839,91.17283950617285,0)" xlink:href="#ao"/><use transform="matrix(0.06172839506172839,0,0,0.06172839506172839,104.69135802469137,0)" xlink:href="#aD"/></g><path fill="#333" d="M199 0l-22-63H83L61 0H9l90-248h61L250 0h-51zm-33-102l-36-108c-10 38-24 72-36 108h72" id="aR"/><g id="n"><use transform="matrix(0.04938271604938272,0,0,0.04938271604938272,0,0)" xlink:href="#aR"/><use transform="matrix(0.04938271604938272,0,0,0.04938271604938272,12.790123456790125,0)" xlink:href="#aM"/><use transform="matrix(0.04938271604938272,0,0,0.04938271604938272,25.58024691358025,0)" xlink:href="#aM"/><use transform="matrix(0.04938271604938272,0,0,0.04938271604938272,38.370370370370374,0)" xlink:href="#aj"/><use transform="matrix(0.04938271604938272,0,0,0.04938271604938272,50.22222222222223,0)" xlink:href="#aM"/></g><path fill="#333" d="M121-226c-27-7-43 5-38 36h38v33H83V0H34v-157H6v-33h28c-9-59 32-81 87-68v32" id="aS"/><g id="o"><use transform="matrix(0.06172839506172839,0,0,0.06172839506172839,0,0)" xlink:href="#aK"/><use transform="matrix(0.06172839506172839,0,0,0.06172839506172839,18.456790123456788,0)" xlink:href="#ax"/><use transform="matrix(0.06172839506172839,0,0,0.06172839506172839,31.9753086419753,0)" xlink:href="#az"/><use transform="matrix(0.06172839506172839,0,0,0.06172839506172839,45.49382716049382,0)" xlink:href="#aq"/><use transform="matrix(0.06172839506172839,0,0,0.06172839506172839,51.666666666666664,0)" xlink:href="#aS"/><use transform="matrix(0.06172839506172839,0,0,0.06172839506172839,59.01234567901234,0)" xlink:href="#aq"/><use transform="matrix(0.06172839506172839,0,0,0.06172839506172839,65.18518518518518,0)" xlink:href="#av"/><use transform="matrix(0.06172839506172839,0,0,0.06172839506172839,77.53086419753086,0)" xlink:href="#az"/></g><g id="p"><use transform="matrix(0.06172839506172839,0,0,0.06172839506172839,0,0)" xlink:href="#al"/><use transform="matrix(0.06172839506172839,0,0,0.06172839506172839,15.987654320987653,0)" xlink:href="#av"/><use transform="matrix(0.06172839506172839,0,0,0.06172839506172839,28.333333333333332,0)" xlink:href="#aw"/><use transform="matrix(0.06172839506172839,0,0,0.06172839506172839,40.67901234567901,0)" xlink:href="#ax"/><use transform="matrix(0.06172839506172839,0,0,0.06172839506172839,54.19753086419753,0)" xlink:href="#ay"/><use transform="matrix(0.06172839506172839,0,0,0.06172839506172839,62.839506172839506,0)" xlink:href="#az"/></g><g id="q"><use transform="matrix(0.06172839506172839,0,0,0.06172839506172839,0,0)" xlink:href="#ak"/><use transform="matrix(0.06172839506172839,0,0,0.06172839506172839,15.987654320987653,0)" xlink:href="#as"/><use transform="matrix(0.06172839506172839,0,0,0.06172839506172839,29.50617283950617,0)" xlink:href="#at"/><use transform="matrix(0.06172839506172839,0,0,0.06172839506172839,41.85185185185185,0)" xlink:href="#ao"/><use transform="matrix(0.06172839506172839,0,0,0.06172839506172839,55.37037037037037,0)" xlink:href="#au"/><use transform="matrix(0.06172839506172839,0,0,0.06172839506172839,68.88888888888889,0)" xlink:href="#av"/></g><g id="r"><use transform="matrix(0.06172839506172839,0,0,0.06172839506172839,0,0)" xlink:href="#aR"/><use transform="matrix(0.06172839506172839,0,0,0.06172839506172839,15.987654320987653,0)" xlink:href="#az"/><use transform="matrix(0.06172839506172839,0,0,0.06172839506172839,29.50617283950617,0)" xlink:href="#az"/></g><g id="s"><use transform="matrix(0.06172839506172839,0,0,0.06172839506172839,0,0)" xlink:href="#am"/><use transform="matrix(0.06172839506172839,0,0,0.06172839506172839,12.28395061728395,0)" xlink:href="#ay"/><use transform="matrix(0.06172839506172839,0,0,0.06172839506172839,20.925925925925924,0)" xlink:href="#at"/><use transform="matrix(0.06172839506172839,0,0,0.06172839506172839,33.2716049382716,0)" xlink:href="#aw"/><use transform="matrix(0.06172839506172839,0,0,0.06172839506172839,45.61728395061728,0)" xlink:href="#aA"/><use transform="matrix(0.06172839506172839,0,0,0.06172839506172839,57.962962962962955,0)" xlink:href="#av"/><use transform="matrix(0.06172839506172839,0,0,0.06172839506172839,70.30864197530863,0)" xlink:href="#ay"/></g><g id="t"><use transform="matrix(0.06172839506172839,0,0,0.06172839506172839,0,0)" xlink:href="#aM"/><use transform="matrix(0.06172839506172839,0,0,0.06172839506172839,15.987654320987653,0)" xlink:href="#at"/><use transform="matrix(0.06172839506172839,0,0,0.06172839506172839,28.333333333333332,0)" xlink:href="#ap"/><use transform="matrix(0.06172839506172839,0,0,0.06172839506172839,35.67901234567901,0)" xlink:href="#at"/></g><g id="u"><use transform="matrix(0.06172839506172839,0,0,0.06172839506172839,0,0)" xlink:href="#ak"/><use transform="matrix(0.06172839506172839,0,0,0.06172839506172839,15.987654320987653,0)" xlink:href="#as"/><use transform="matrix(0.06172839506172839,0,0,0.06172839506172839,29.50617283950617,0)" xlink:href="#at"/><use transform="matrix(0.06172839506172839,0,0,0.06172839506172839,41.85185185185185,0)" xlink:href="#ao"/><use transform="matrix(0.06172839506172839,0,0,0.06172839506172839,55.37037037037037,0)" xlink:href="#au"/><use transform="matrix(0.06172839506172839,0,0,0.06172839506172839,68.88888888888889,0)" xlink:href="#av"/><use transform="matrix(0.06172839506172839,0,0,0.06172839506172839,81.23456790123457,0)" xlink:href="#al"/><use transform="matrix(0.06172839506172839,0,0,0.06172839506172839,97.22222222222223,0)" xlink:href="#av"/><use transform="matrix(0.06172839506172839,0,0,0.06172839506172839,109.56790123456791,0)" xlink:href="#aw"/><use transform="matrix(0.06172839506172839,0,0,0.06172839506172839,121.9135802469136,0)" xlink:href="#ax"/><use transform="matrix(0.06172839506172839,0,0,0.06172839506172839,135.4320987654321,0)" xlink:href="#ay"/><use transform="matrix(0.06172839506172839,0,0,0.06172839506172839,144.07407407407408,0)" xlink:href="#az"/></g><g id="v"><use transform="matrix(0.06172839506172839,0,0,0.06172839506172839,0,0)" xlink:href="#ak"/><use transform="matrix(0.06172839506172839,0,0,0.06172839506172839,15.987654320987653,0)" xlink:href="#as"/><use transform="matrix(0.06172839506172839,0,0,0.06172839506172839,29.50617283950617,0)" xlink:href="#at"/><use transform="matrix(0.06172839506172839,0,0,0.06172839506172839,41.85185185185185,0)" xlink:href="#ao"/><use transform="matrix(0.06172839506172839,0,0,0.06172839506172839,55.37037037037037,0)" xlink:href="#au"/><use transform="matrix(0.06172839506172839,0,0,0.06172839506172839,68.88888888888889,0)" xlink:href="#av"/><use transform="matrix(0.06172839506172839,0,0,0.06172839506172839,81.23456790123457,0)" xlink:href="#al"/><use transform="matrix(0.06172839506172839,0,0,0.06172839506172839,97.22222222222223,0)" xlink:href="#av"/><use transform="matrix(0.06172839506172839,0,0,0.06172839506172839,109.56790123456791,0)" xlink:href="#aw"/><use transform="matrix(0.06172839506172839,0,0,0.06172839506172839,121.9135802469136,0)" xlink:href="#ax"/><use transform="matrix(0.06172839506172839,0,0,0.06172839506172839,135.4320987654321,0)" xlink:href="#ay"/><use transform="matrix(0.06172839506172839,0,0,0.06172839506172839,144.07407407407408,0)" xlink:href="#az"/></g><g id="w"><use transform="matrix(0.06172839506172839,0,0,0.06172839506172839,0,0)" xlink:href="#am"/><use transform="matrix(0.06172839506172839,0,0,0.06172839506172839,12.28395061728395,0)" xlink:href="#ay"/><use transform="matrix(0.06172839506172839,0,0,0.06172839506172839,20.925925925925924,0)" xlink:href="#at"/><use transform="matrix(0.06172839506172839,0,0,0.06172839506172839,33.2716049382716,0)" xlink:href="#aw"/><use transform="matrix(0.06172839506172839,0,0,0.06172839506172839,45.61728395061728,0)" xlink:href="#aA"/><use transform="matrix(0.06172839506172839,0,0,0.06172839506172839,57.962962962962955,0)" xlink:href="#av"/><use transform="matrix(0.06172839506172839,0,0,0.06172839506172839,70.30864197530863,0)" xlink:href="#ay"/></g><path fill="#333" d="M160-131c35 5 61 23 61 61C221 17 115-2 30 0v-248c76 3 177-17 177 60 0 33-19 50-47 57zm-97-11c50-1 110 9 110-42 0-47-63-36-110-37v79zm0 115c55-2 124 14 124-45 0-56-70-42-124-44v89" id="aT"/><use transform="matrix(0.06172839506172839,0,0,0.06172839506172839,0,0)" xlink:href="#aT" id="x"/><path fill="#202124" d="M27 0v-27h64v-190l-56 39v-29l58-41h29v221h61V0H27" id="aU"/><path fill="#202124" d="M33 0v-38h34V0H33" id="aV"/><g id="y"><use transform="matrix(0.06049382716049381,0,0,0.06049382716049381,0,0)" xlink:href="#aU"/><use transform="matrix(0.06049382716049381,0,0,0.06049382716049381,12.098765432098762,0)" xlink:href="#aV"/></g><path fill="#202124" d="M30 0v-248h187v28H63v79h144v27H63v87h162V0H30" id="aW"/><path fill="#202124" d="M141 0L90-78 38 0H4l68-98-65-92h35l48 74 47-74h35l-64 92 68 98h-35" id="aX"/><path fill="#202124" d="M96-169c-40 0-48 33-48 73s9 75 48 75c24 0 41-14 43-38l32 2c-6 37-31 61-74 61-59 0-76-41-82-99-10-93 101-131 147-64 4 7 5 14 7 22l-32 3c-4-21-16-35-41-35" id="aY"/><path fill="#202124" d="M100-194c63 0 86 42 84 106H49c0 40 14 67 53 68 26 1 43-12 49-29l28 8c-11 28-37 45-77 45C44 4 14-33 15-96c1-61 26-98 85-98zm52 81c6-60-76-77-97-28-3 7-6 17-6 28h103" id="aZ"/><path fill="#202124" d="M115-194c55 1 70 41 70 98S169 2 115 4C84 4 66-9 55-30l1 105H24l-1-265h31l2 30c10-21 28-34 59-34zm-8 174c40 0 45-34 45-75s-6-73-45-74c-42 0-51 32-51 76 0 43 10 73 51 73" id="ba"/><path fill="#202124" d="M59-47c-2 24 18 29 38 22v24C64 9 27 4 27-40v-127H5v-23h24l9-43h21v43h35v23H59v120" id="bb"/><path fill="#202124" d="M24-231v-30h32v30H24zM24 0v-190h32V0H24" id="bc"/><path fill="#202124" d="M100-194c62-1 85 37 85 99 1 63-27 99-86 99S16-35 15-95c0-66 28-99 85-99zM99-20c44 1 53-31 53-75 0-43-8-75-51-75s-53 32-53 75 10 74 51 75" id="bd"/><path fill="#202124" d="M117-194c89-4 53 116 60 194h-32v-121c0-31-8-49-39-48C34-167 62-67 57 0H25l-1-190h30c1 10-1 24 2 32 11-22 29-35 61-36" id="be"/><path fill="#202124" d="M135-143c-3-34-86-38-87 0 15 53 115 12 119 90S17 21 10-45l28-5c4 36 97 45 98 0-10-56-113-15-118-90-4-57 82-63 122-42 12 7 21 19 24 35" id="bf"/><g id="z"><use transform="matrix(0.06049382716049381,0,0,0.06049382716049381,0,0)" xlink:href="#aW"/><use transform="matrix(0.06049382716049381,0,0,0.06049382716049381,14.518518518518515,0)" xlink:href="#aX"/><use transform="matrix(0.06049382716049381,0,0,0.06049382716049381,25.4074074074074,0)" xlink:href="#aY"/><use transform="matrix(0.06049382716049381,0,0,0.06049382716049381,36.29629629629629,0)" xlink:href="#aZ"/><use transform="matrix(0.06049382716049381,0,0,0.06049382716049381,48.39506172839505,0)" xlink:href="#ba"/><use transform="matrix(0.06049382716049381,0,0,0.06049382716049381,60.49382716049381,0)" xlink:href="#bb"/><use transform="matrix(0.06049382716049381,0,0,0.06049382716049381,66.54320987654319,0)" xlink:href="#bc"/><use transform="matrix(0.06049382716049381,0,0,0.06049382716049381,71.3222222222222,0)" xlink:href="#bd"/><use transform="matrix(0.06049382716049381,0,0,0.06049382716049381,83.42098765432095,0)" xlink:href="#be"/><use transform="matrix(0.06049382716049381,0,0,0.06049382716049381,95.51975308641971,0)" xlink:href="#bf"/></g><path fill="#202124" d="M106-169C34-169 62-67 57 0H25v-261h32l-1 103c12-21 28-36 61-36 89 0 53 116 60 194h-32v-121c2-32-8-49-39-48" id="bg"/><path fill="#202124" d="M114-163C36-179 61-72 57 0H25l-1-190h30c1 12-1 29 2 39 6-27 23-49 58-41v29" id="bh"/><path fill="#202124" d="M206 0h-36l-40-164L89 0H53L-1-190h32L70-26l43-164h34l41 164 42-164h31" id="bi"/><g id="A"><use transform="matrix(0.06049382716049381,0,0,0.06049382716049381,0,0)" xlink:href="#bb"/><use transform="matrix(0.06049382716049381,0,0,0.06049382716049381,6.049382716049381,0)" xlink:href="#bg"/><use transform="matrix(0.06049382716049381,0,0,0.06049382716049381,18.148148148148145,0)" xlink:href="#bh"/><use transform="matrix(0.06049382716049381,0,0,0.06049382716049381,25.34691358024691,0)" xlink:href="#bd"/><use transform="matrix(0.06049382716049381,0,0,0.06049382716049381,37.44567901234567,0)" xlink:href="#bi"/><use transform="matrix(0.06049382716049381,0,0,0.06049382716049381,53.11358024691357,0)" xlink:href="#be"/></g><path fill="#202124" d="M85-194c31 0 48 13 60 33l-1-100h32l1 261h-30c-2-10 0-23-3-31C134-8 116 4 85 4 32 4 16-35 15-94c0-66 23-100 70-100zm9 24c-40 0-46 34-46 75 0 40 6 74 45 74 42 0 51-32 51-76 0-42-9-74-50-73" id="bj"/><path fill="#202124" d="M84 4C-5 8 30-112 23-190h32v120c0 31 7 50 39 49 72-2 45-101 50-169h31l1 190h-30c-1-10 1-25-2-33-11 22-28 36-60 37" id="bk"/><path fill="#202124" d="M177-190C167-65 218 103 67 71c-23-6-38-20-44-43l32-5c15 47 100 32 89-28v-30C133-14 115 1 83 1 29 1 15-40 15-95c0-56 16-97 71-98 29-1 48 16 59 35 1-10 0-23 2-32h30zM94-22c36 0 50-32 50-73 0-42-14-75-50-75-39 0-46 34-46 75s6 73 46 73" id="bl"/><g id="B"><use transform="matrix(0.06049382716049381,0,0,0.06049382716049381,0,0)" xlink:href="#bj"/><use transform="matrix(0.06049382716049381,0,0,0.06049382716049381,12.098765432098762,0)" xlink:href="#bk"/><use transform="matrix(0.06049382716049381,0,0,0.06049382716049381,24.197530864197525,0)" xlink:href="#bh"/><use transform="matrix(0.06049382716049381,0,0,0.06049382716049381,31.39629629629629,0)" xlink:href="#bc"/><use transform="matrix(0.06049382716049381,0,0,0.06049382716049381,36.1753086419753,0)" xlink:href="#be"/><use transform="matrix(0.06049382716049381,0,0,0.06049382716049381,48.274074074074065,0)" xlink:href="#bl"/></g><g id="C"><use transform="matrix(0.06049382716049381,0,0,0.06049382716049381,0,0)" xlink:href="#bb"/><use transform="matrix(0.06049382716049381,0,0,0.06049382716049381,6.049382716049381,0)" xlink:href="#bg"/><use transform="matrix(0.06049382716049381,0,0,0.06049382716049381,18.148148148148145,0)" xlink:href="#aZ"/></g><path fill="#202124" d="M212-179c-10-28-35-45-73-45-59 0-87 40-87 99 0 60 29 101 89 101 43 0 62-24 78-52l27 14C228-24 195 4 139 4 59 4 22-46 18-125c-6-104 99-153 187-111 19 9 31 26 39 46" id="bm"/><path fill="#202124" d="M233-177c-1 41-23 64-60 70L243 0h-38l-65-103H63V0H30v-248c88 3 205-21 203 71zM63-129c60-2 137 13 137-47 0-61-80-42-137-45v92" id="bn"/><path fill="#202124" d="M127-220V0H93v-220H8v-28h204v28h-85" id="bo"/><g id="D"><use transform="matrix(0.06049382716049381,0,0,0.06049382716049381,0,0)" xlink:href="#aW"/><use transform="matrix(0.06049382716049381,0,0,0.06049382716049381,14.518518518518515,0)" xlink:href="#bm"/><use transform="matrix(0.06049382716049381,0,0,0.06049382716049381,30.186419753086412,0)" xlink:href="#bn"/><use transform="matrix(0.06049382716049381,0,0,0.06049382716049381,45.43086419753085,0)" xlink:href="#bo"/></g><g id="E"><use transform="matrix(0.06049382716049381,0,0,0.06049382716049381,0,0)" xlink:href="#ba"/><use transform="matrix(0.06049382716049381,0,0,0.06049382716049381,12.098765432098762,0)" xlink:href="#bh"/><use transform="matrix(0.06049382716049381,0,0,0.06049382716049381,19.297530864197526,0)" xlink:href="#bd"/><use transform="matrix(0.06049382716049381,0,0,0.06049382716049381,31.39629629629629,0)" xlink:href="#aY"/><use transform="matrix(0.06049382716049381,0,0,0.06049382716049381,42.28518518518517,0)" xlink:href="#aZ"/><use transform="matrix(0.06049382716049381,0,0,0.06049382716049381,54.38395061728393,0)" xlink:href="#bf"/><use transform="matrix(0.06049382716049381,0,0,0.06049382716049381,65.27283950617282,0)" xlink:href="#bf"/></g><path fill="#202124" d="M24 0v-261h32V0H24" id="bp"/><g id="F"><use transform="matrix(0.06049382716049381,0,0,0.06049382716049381,0,0)" xlink:href="#bi"/><use transform="matrix(0.06049382716049381,0,0,0.06049382716049381,15.667901234567898,0)" xlink:href="#bc"/><use transform="matrix(0.06049382716049381,0,0,0.06049382716049381,20.44691358024691,0)" xlink:href="#bp"/><use transform="matrix(0.06049382716049381,0,0,0.06049382716049381,25.22592592592592,0)" xlink:href="#bp"/></g><path fill="#202124" d="M115-194c53 0 69 39 70 98 0 66-23 100-70 100C84 3 66-7 56-30L54 0H23l1-261h32v101c10-23 28-34 59-34zm-8 174c40 0 45-34 45-75 0-40-5-75-45-74-42 0-51 32-51 76 0 43 10 73 51 73" id="bq"/><g id="G"><use transform="matrix(0.06049382716049381,0,0,0.06049382716049381,0,0)" xlink:href="#bq"/><use transform="matrix(0.06049382716049381,0,0,0.06049382716049381,12.098765432098762,0)" xlink:href="#aZ"/></g><path fill="#202124" d="M141-36C126-15 110 5 73 4 37 3 15-17 15-53c-1-64 63-63 125-63 3-35-9-54-41-54-24 1-41 7-42 31l-33-3c5-37 33-52 76-52 45 0 72 20 72 64v82c-1 20 7 32 28 27v20c-31 9-61-2-59-35zM48-53c0 20 12 33 32 33 41-3 63-29 60-74-43 2-92-5-92 41" id="br"/><g id="H"><use transform="matrix(0.06049382716049381,0,0,0.06049382716049381,0,0)" xlink:href="#aY"/><use transform="matrix(0.06049382716049381,0,0,0.06049382716049381,10.888888888888886,0)" xlink:href="#br"/><use transform="matrix(0.06049382716049381,0,0,0.06049382716049381,22.987654320987648,0)" xlink:href="#bk"/><use transform="matrix(0.06049382716049381,0,0,0.06049382716049381,35.08641975308641,0)" xlink:href="#bl"/><use transform="matrix(0.06049382716049381,0,0,0.06049382716049381,47.185185185185176,0)" xlink:href="#bg"/><use transform="matrix(0.06049382716049381,0,0,0.06049382716049381,59.283950617283935,0)" xlink:href="#bb"/></g><path fill="#202124" d="M179-190L93 31C79 59 56 82 12 73V49c39 6 53-20 64-50L1-190h34L92-34l54-156h33" id="bs"/><g id="I"><use transform="matrix(0.06049382716049381,0,0,0.06049382716049381,0,0)" xlink:href="#bq"/><use transform="matrix(0.06049382716049381,0,0,0.06049382716049381,12.098765432098762,0)" xlink:href="#bs"/></g><path fill="#202124" d="M145-31C134-9 116 4 85 4 32 4 16-35 15-94c0-59 17-99 70-100 32-1 48 14 60 33 0-11-1-24 2-32h30l-1 268h-32zM93-21c41 0 51-33 51-76s-8-73-50-73c-40 0-46 35-46 75s5 74 45 74" id="bt"/><g id="J"><use transform="matrix(0.06049382716049381,0,0,0.06049382716049381,0,0)" xlink:href="#bh"/><use transform="matrix(0.06049382716049381,0,0,0.06049382716049381,7.198765432098764,0)" xlink:href="#aZ"/><use transform="matrix(0.06049382716049381,0,0,0.06049382716049381,19.297530864197526,0)" xlink:href="#bt"/><use transform="matrix(0.06049382716049381,0,0,0.06049382716049381,31.39629629629629,0)" xlink:href="#bk"/><use transform="matrix(0.06049382716049381,0,0,0.06049382716049381,43.49506172839505,0)" xlink:href="#aZ"/><use transform="matrix(0.06049382716049381,0,0,0.06049382716049381,55.59382716049382,0)" xlink:href="#bf"/><use transform="matrix(0.06049382716049381,0,0,0.06049382716049381,66.4827160493827,0)" xlink:href="#bb"/></g><g id="K"><use transform="matrix(0.06049382716049381,0,0,0.06049382716049381,0,0)" xlink:href="#bg"/><use transform="matrix(0.06049382716049381,0,0,0.06049382716049381,12.098765432098762,0)" xlink:href="#br"/><use transform="matrix(0.06049382716049381,0,0,0.06049382716049381,24.197530864197525,0)" xlink:href="#be"/><use transform="matrix(0.06049382716049381,0,0,0.06049382716049381,36.29629629629629,0)" xlink:href="#bj"/><use transform="matrix(0.06049382716049381,0,0,0.06049382716049381,48.39506172839505,0)" xlink:href="#bp"/><use transform="matrix(0.06049382716049381,0,0,0.06049382716049381,53.17407407407406,0)" xlink:href="#aZ"/><use transform="matrix(0.06049382716049381,0,0,0.06049382716049381,65.27283950617283,0)" xlink:href="#bh"/></g><g id="L"><use transform="matrix(0.06049382716049381,0,0,0.06049382716049381,0,0)" xlink:href="#br"/><use transform="matrix(0.06049382716049381,0,0,0.06049382716049381,12.098765432098762,0)" xlink:href="#be"/><use transform="matrix(0.06049382716049381,0,0,0.06049382716049381,24.197530864197525,0)" xlink:href="#bj"/></g><g id="M"><use transform="matrix(0.06049382716049381,0,0,0.06049382716049381,0,0)" xlink:href="#bj"/><use transform="matrix(0.06049382716049381,0,0,0.06049382716049381,12.098765432098762,0)" xlink:href="#bc"/><use transform="matrix(0.06049382716049381,0,0,0.06049382716049381,16.877777777777773,0)" xlink:href="#bf"/><use transform="matrix(0.06049382716049381,0,0,0.06049382716049381,27.76666666666666,0)" xlink:href="#ba"/><use transform="matrix(0.06049382716049381,0,0,0.06049382716049381,39.865432098765424,0)" xlink:href="#bp"/><use transform="matrix(0.06049382716049381,0,0,0.06049382716049381,44.64444444444444,0)" xlink:href="#br"/><use transform="matrix(0.06049382716049381,0,0,0.06049382716049381,56.743209876543204,0)" xlink:href="#bs"/><use transform="matrix(0.06049382716049381,0,0,0.06049382716049381,67.63209876543209,0)" xlink:href="#aZ"/><use transform="matrix(0.06049382716049381,0,0,0.06049382716049381,79.73086419753085,0)" xlink:href="#bj"/></g><g id="N"><use transform="matrix(0.06049382716049381,0,0,0.06049382716049381,0,0)" xlink:href="#bc"/><use transform="matrix(0.06049382716049381,0,0,0.06049382716049381,4.7790123456790115,0)" xlink:href="#be"/></g><g id="O"><use transform="matrix(0.06049382716049381,0,0,0.06049382716049381,0,0)" xlink:href="#br"/><use transform="matrix(0.06049382716049381,0,0,0.06049382716049381,12.098765432098762,0)" xlink:href="#ba"/><use transform="matrix(0.06049382716049381,0,0,0.06049382716049381,24.197530864197525,0)" xlink:href="#ba"/><use transform="matrix(0.06049382716049381,0,0,0.06049382716049381,36.29629629629629,0)" xlink:href="#bp"/><use transform="matrix(0.06049382716049381,0,0,0.06049382716049381,41.075308641975305,0)" xlink:href="#bc"/><use transform="matrix(0.06049382716049381,0,0,0.06049382716049381,45.85432098765432,0)" xlink:href="#aY"/><use transform="matrix(0.06049382716049381,0,0,0.06049382716049381,56.743209876543204,0)" xlink:href="#br"/><use transform="matrix(0.06049382716049381,0,0,0.06049382716049381,68.84197530864196,0)" xlink:href="#bb"/><use transform="matrix(0.06049382716049381,0,0,0.06049382716049381,74.89135802469134,0)" xlink:href="#bc"/><use transform="matrix(0.06049382716049381,0,0,0.06049382716049381,79.67037037037035,0)" xlink:href="#bd"/><use transform="matrix(0.06049382716049381,0,0,0.06049382716049381,91.76913580246911,0)" xlink:href="#be"/></g><path fill="#202124" d="M68-36c1 33-1 63-14 82H32c9-13 17-26 17-46H33v-36h35zM33-154v-36h35v36H33" id="bu"/><g id="P"><use transform="matrix(0.06049382716049381,0,0,0.06049382716049381,0,0)" xlink:href="#aY"/><use transform="matrix(0.06049382716049381,0,0,0.06049382716049381,10.888888888888886,0)" xlink:href="#bd"/><use transform="matrix(0.06049382716049381,0,0,0.06049382716049381,22.987654320987648,0)" xlink:href="#be"/><use transform="matrix(0.06049382716049381,0,0,0.06049382716049381,35.08641975308641,0)" xlink:href="#bf"/><use transform="matrix(0.06049382716049381,0,0,0.06049382716049381,45.975308641975296,0)" xlink:href="#bd"/><use transform="matrix(0.06049382716049381,0,0,0.06049382716049381,58.07407407407406,0)" xlink:href="#bp"/><use transform="matrix(0.06049382716049381,0,0,0.06049382716049381,62.85308641975307,0)" xlink:href="#aZ"/><use transform="matrix(0.06049382716049381,0,0,0.06049382716049381,74.95185185185184,0)" xlink:href="#bu"/></g><path fill="#202124" d="M101-251c82-7 93 87 43 132L82-64C71-53 59-42 53-27h129V0H18c2-99 128-94 128-182 0-28-16-43-45-43s-46 15-49 41l-32-3c6-41 34-60 81-64" id="bv"/><g id="Q"><use transform="matrix(0.06049382716049381,0,0,0.06049382716049381,0,0)" xlink:href="#bv"/><use transform="matrix(0.06049382716049381,0,0,0.06049382716049381,12.098765432098762,0)" xlink:href="#aV"/></g><g id="R"><use transform="matrix(0.06049382716049381,0,0,0.06049382716049381,0,0)" xlink:href="#bo"/><use transform="matrix(0.06049382716049381,0,0,0.06049382716049381,13.248148148148145,0)" xlink:href="#bg"/><use transform="matrix(0.06049382716049381,0,0,0.06049382716049381,25.346913580246905,0)" xlink:href="#aZ"/></g><g id="S"><use transform="matrix(0.06049382716049381,0,0,0.06049382716049381,0,0)" xlink:href="#bj"/><use transform="matrix(0.06049382716049381,0,0,0.06049382716049381,12.098765432098762,0)" xlink:href="#br"/><use transform="matrix(0.06049382716049381,0,0,0.06049382716049381,24.197530864197525,0)" xlink:href="#bb"/><use transform="matrix(0.06049382716049381,0,0,0.06049382716049381,30.246913580246904,0)" xlink:href="#br"/></g><g id="T"><use transform="matrix(0.06049382716049381,0,0,0.06049382716049381,0,0)" xlink:href="#bf"/><use transform="matrix(0.06049382716049381,0,0,0.06049382716049381,10.888888888888886,0)" xlink:href="#bb"/><use transform="matrix(0.06049382716049381,0,0,0.06049382716049381,16.938271604938265,0)" xlink:href="#bh"/><use transform="matrix(0.06049382716049381,0,0,0.06049382716049381,24.13703703703703,0)" xlink:href="#bk"/><use transform="matrix(0.06049382716049381,0,0,0.06049382716049381,36.23580246913579,0)" xlink:href="#aY"/><use transform="matrix(0.06049382716049381,0,0,0.06049382716049381,47.12469135802468,0)" xlink:href="#bb"/><use transform="matrix(0.06049382716049381,0,0,0.06049382716049381,53.174074074074056,0)" xlink:href="#bk"/><use transform="matrix(0.06049382716049381,0,0,0.06049382716049381,65.27283950617282,0)" xlink:href="#bh"/><use transform="matrix(0.06049382716049381,0,0,0.06049382716049381,72.47160493827158,0)" xlink:href="#aZ"/></g><g id="U"><use transform="matrix(0.06049382716049381,0,0,0.06049382716049381,0,0)" xlink:href="#bc"/><use transform="matrix(0.06049382716049381,0,0,0.06049382716049381,4.7790123456790115,0)" xlink:href="#bf"/></g><g id="V"><use transform="matrix(0.06049382716049381,0,0,0.06049382716049381,0,0)" xlink:href="#aY"/><use transform="matrix(0.06049382716049381,0,0,0.06049382716049381,10.888888888888886,0)" xlink:href="#bd"/><use transform="matrix(0.06049382716049381,0,0,0.06049382716049381,22.987654320987648,0)" xlink:href="#be"/><use transform="matrix(0.06049382716049381,0,0,0.06049382716049381,35.08641975308641,0)" xlink:href="#bb"/><use transform="matrix(0.06049382716049381,0,0,0.06049382716049381,41.13580246913579,0)" xlink:href="#bc"/><use transform="matrix(0.06049382716049381,0,0,0.06049382716049381,45.914814814814804,0)" xlink:href="#be"/><use transform="matrix(0.06049382716049381,0,0,0.06049382716049381,58.01358024691356,0)" xlink:href="#bk"/><use transform="matrix(0.06049382716049381,0,0,0.06049382716049381,70.11234567901232,0)" xlink:href="#bd"/><use transform="matrix(0.06049382716049381,0,0,0.06049382716049381,82.21111111111108,0)" xlink:href="#bk"/><use transform="matrix(0.06049382716049381,0,0,0.06049382716049381,94.30987654320984,0)" xlink:href="#bf"/></g><path fill="#202124" d="M68-38c1 34 0 65-14 84H32c9-13 17-26 17-46H33v-38h35" id="bw"/><g id="W"><use transform="matrix(0.06049382716049381,0,0,0.06049382716049381,0,0)" xlink:href="#bp"/><use transform="matrix(0.06049382716049381,0,0,0.06049382716049381,4.7790123456790115,0)" xlink:href="#bc"/><use transform="matrix(0.06049382716049381,0,0,0.06049382716049381,9.558024691358023,0)" xlink:href="#be"/><use transform="matrix(0.06049382716049381,0,0,0.06049382716049381,21.656790123456787,0)" xlink:href="#aZ"/><use transform="matrix(0.06049382716049381,0,0,0.06049382716049381,33.755555555555546,0)" xlink:href="#br"/><use transform="matrix(0.06049382716049381,0,0,0.06049382716049381,45.854320987654305,0)" xlink:href="#bh"/><use transform="matrix(0.06049382716049381,0,0,0.06049382716049381,51.8432098765432,0)" xlink:href="#bw"/></g><g id="X"><use transform="matrix(0.06049382716049381,0,0,0.06049382716049381,0,0)" xlink:href="#aZ"/><use transform="matrix(0.06049382716049381,0,0,0.06049382716049381,12.098765432098762,0)" xlink:href="#aX"/><use transform="matrix(0.06049382716049381,0,0,0.06049382716049381,22.987654320987648,0)" xlink:href="#ba"/><use transform="matrix(0.06049382716049381,0,0,0.06049382716049381,35.08641975308641,0)" xlink:href="#bh"/><use transform="matrix(0.06049382716049381,0,0,0.06049382716049381,42.28518518518517,0)" xlink:href="#aZ"/><use transform="matrix(0.06049382716049381,0,0,0.06049382716049381,54.38395061728393,0)" xlink:href="#bf"/><use transform="matrix(0.06049382716049381,0,0,0.06049382716049381,65.27283950617282,0)" xlink:href="#bf"/><use transform="matrix(0.06049382716049381,0,0,0.06049382716049381,76.1617283950617,0)" xlink:href="#bc"/><use transform="matrix(0.06049382716049381,0,0,0.06049382716049381,80.94074074074071,0)" xlink:href="#be"/><use transform="matrix(0.06049382716049381,0,0,0.06049382716049381,93.03950617283947,0)" xlink:href="#bl"/></g><g id="Y"><use transform="matrix(0.06049382716049381,0,0,0.06049382716049381,0,0)" xlink:href="#aY"/><use transform="matrix(0.06049382716049381,0,0,0.06049382716049381,10.888888888888886,0)" xlink:href="#bg"/><use transform="matrix(0.06049382716049381,0,0,0.06049382716049381,22.987654320987648,0)" xlink:href="#br"/><use transform="matrix(0.06049382716049381,0,0,0.06049382716049381,35.08641975308641,0)" xlink:href="#be"/><use transform="matrix(0.06049382716049381,0,0,0.06049382716049381,47.185185185185176,0)" xlink:href="#bl"/><use transform="matrix(0.06049382716049381,0,0,0.06049382716049381,59.283950617283935,0)" xlink:href="#aZ"/><use transform="matrix(0.06049382716049381,0,0,0.06049382716049381,71.3827160493827,0)" xlink:href="#bf"/></g><path fill="#202124" d="M101-234c-31-9-42 10-38 44h38v23H63V0H32v-167H5v-23h27c-7-52 17-82 69-68v24" id="bx"/><path fill="#202124" d="M210-169c-67 3-38 105-44 169h-31v-121c0-29-5-50-35-48C34-165 62-65 56 0H25l-1-190h30c1 10-1 24 2 32 10-44 99-50 107 0 11-21 27-35 58-36 85-2 47 119 55 194h-31v-121c0-29-5-49-35-48" id="by"/><g id="Z"><use transform="matrix(0.06049382716049381,0,0,0.06049382716049381,0,0)" xlink:href="#bx"/><use transform="matrix(0.06049382716049381,0,0,0.06049382716049381,6.049382716049381,0)" xlink:href="#bh"/><use transform="matrix(0.06049382716049381,0,0,0.06049382716049381,13.248148148148145,0)" xlink:href="#bd"/><use transform="matrix(0.06049382716049381,0,0,0.06049382716049381,25.346913580246905,0)" xlink:href="#by"/></g><path fill="#202124" d="M47-170H22l-4-78h33" id="bz"/><g id="aa"><use transform="matrix(0.06049382716049381,0,0,0.06049382716049381,0,0)" xlink:href="#aZ"/><use transform="matrix(0.06049382716049381,0,0,0.06049382716049381,12.098765432098762,0)" xlink:href="#be"/><use transform="matrix(0.06049382716049381,0,0,0.06049382716049381,24.197530864197525,0)" xlink:href="#bb"/><use transform="matrix(0.06049382716049381,0,0,0.06049382716049381,30.246913580246904,0)" xlink:href="#bc"/><use transform="matrix(0.06049382716049381,0,0,0.06049382716049381,35.02592592592592,0)" xlink:href="#bb"/><use transform="matrix(0.06049382716049381,0,0,0.06049382716049381,41.0753086419753,0)" xlink:href="#bs"/><use transform="matrix(0.06049382716049381,0,0,0.06049382716049381,51.96419753086418,0)" xlink:href="#bz"/><use transform="matrix(0.06049382716049381,0,0,0.06049382716049381,56.07777777777776,0)" xlink:href="#bf"/></g><g id="ab"><use transform="matrix(0.06049382716049381,0,0,0.06049382716049381,0,0)" xlink:href="#bh"/><use transform="matrix(0.06049382716049381,0,0,0.06049382716049381,7.198765432098764,0)" xlink:href="#aZ"/><use transform="matrix(0.06049382716049381,0,0,0.06049382716049381,19.297530864197526,0)" xlink:href="#aY"/><use transform="matrix(0.06049382716049381,0,0,0.06049382716049381,30.186419753086412,0)" xlink:href="#bd"/><use transform="matrix(0.06049382716049381,0,0,0.06049382716049381,42.28518518518517,0)" xlink:href="#bh"/><use transform="matrix(0.06049382716049381,0,0,0.06049382716049381,49.48395061728394,0)" xlink:href="#bj"/></g><g id="ac"><use transform="matrix(0.06049382716049381,0,0,0.06049382716049381,0,0)" xlink:href="#bc"/><use transform="matrix(0.06049382716049381,0,0,0.06049382716049381,4.7790123456790115,0)" xlink:href="#bj"/><use transform="matrix(0.06049382716049381,0,0,0.06049382716049381,16.877777777777773,0)" xlink:href="#aZ"/><use transform="matrix(0.06049382716049381,0,0,0.06049382716049381,28.976543209876535,0)" xlink:href="#be"/><use transform="matrix(0.06049382716049381,0,0,0.06049382716049381,41.0753086419753,0)" xlink:href="#bb"/><use transform="matrix(0.06049382716049381,0,0,0.06049382716049381,47.12469135802468,0)" xlink:href="#bc"/><use transform="matrix(0.06049382716049381,0,0,0.06049382716049381,51.90370370370369,0)" xlink:href="#bx"/><use transform="matrix(0.06049382716049381,0,0,0.06049382716049381,57.95308641975307,0)" xlink:href="#bc"/><use transform="matrix(0.06049382716049381,0,0,0.06049382716049381,62.732098765432085,0)" xlink:href="#aZ"/><use transform="matrix(0.06049382716049381,0,0,0.06049382716049381,74.83086419753084,0)" xlink:href="#bh"/></g><g id="ad"><use transform="matrix(0.06049382716049381,0,0,0.06049382716049381,0,0)" xlink:href="#aY"/><use transform="matrix(0.06049382716049381,0,0,0.06049382716049381,10.888888888888886,0)" xlink:href="#bg"/><use transform="matrix(0.06049382716049381,0,0,0.06049382716049381,22.987654320987648,0)" xlink:href="#bh"/><use transform="matrix(0.06049382716049381,0,0,0.06049382716049381,30.186419753086412,0)" xlink:href="#bd"/><use transform="matrix(0.06049382716049381,0,0,0.06049382716049381,42.28518518518517,0)" xlink:href="#be"/><use transform="matrix(0.06049382716049381,0,0,0.06049382716049381,54.38395061728393,0)" xlink:href="#bd"/><use transform="matrix(0.06049382716049381,0,0,0.06049382716049381,66.48271604938269,0)" xlink:href="#bp"/><use transform="matrix(0.06049382716049381,0,0,0.06049382716049381,71.2617283950617,0)" xlink:href="#bd"/><use transform="matrix(0.06049382716049381,0,0,0.06049382716049381,83.36049382716045,0)" xlink:href="#bl"/><use transform="matrix(0.06049382716049381,0,0,0.06049382716049381,95.45925925925921,0)" xlink:href="#bc"/><use transform="matrix(0.06049382716049381,0,0,0.06049382716049381,100.23827160493822,0)" xlink:href="#aY"/><use transform="matrix(0.06049382716049381,0,0,0.06049382716049381,111.1271604938271,0)" xlink:href="#br"/><use transform="matrix(0.06049382716049381,0,0,0.06049382716049381,123.22592592592586,0)" xlink:href="#bp"/><use transform="matrix(0.06049382716049381,0,0,0.06049382716049381,128.00493827160489,0)" xlink:href="#bp"/><use transform="matrix(0.06049382716049381,0,0,0.06049382716049381,132.7839506172839,0)" xlink:href="#bs"/><use transform="matrix(0.06049382716049381,0,0,0.06049382716049381,142.03950617283945,0)" xlink:href="#bw"/></g><g id="ae"><use transform="matrix(0.06049382716049381,0,0,0.06049382716049381,0,0)" xlink:href="#bx"/><use transform="matrix(0.06049382716049381,0,0,0.06049382716049381,6.049382716049381,0)" xlink:href="#br"/><use transform="matrix(0.06049382716049381,0,0,0.06049382716049381,18.148148148148145,0)" xlink:href="#aY"/><use transform="matrix(0.06049382716049381,0,0,0.06049382716049381,29.03703703703703,0)" xlink:href="#bc"/><use transform="matrix(0.06049382716049381,0,0,0.06049382716049381,33.816049382716045,0)" xlink:href="#bp"/><use transform="matrix(0.06049382716049381,0,0,0.06049382716049381,38.59506172839506,0)" xlink:href="#bc"/><use transform="matrix(0.06049382716049381,0,0,0.06049382716049381,43.37407407407407,0)" xlink:href="#bb"/><use transform="matrix(0.06049382716049381,0,0,0.06049382716049381,49.42345679012345,0)" xlink:href="#br"/><use transform="matrix(0.06049382716049381,0,0,0.06049382716049381,61.52222222222221,0)" xlink:href="#bb"/><use transform="matrix(0.06049382716049381,0,0,0.06049382716049381,67.57160493827159,0)" xlink:href="#bc"/><use transform="matrix(0.06049382716049381,0,0,0.06049382716049381,72.3506172839506,0)" xlink:href="#be"/><use transform="matrix(0.06049382716049381,0,0,0.06049382716049381,84.44938271604936,0)" xlink:href="#bl"/></g><g id="af"><use transform="matrix(0.06049382716049381,0,0,0.06049382716049381,0,0)" xlink:href="#bz"/><use transform="matrix(0.06049382716049381,0,0,0.06049382716049381,4.113580246913579,0)" xlink:href="#bh"/><use transform="matrix(0.06049382716049381,0,0,0.06049382716049381,11.312345679012342,0)" xlink:href="#bd"/><use transform="matrix(0.06049382716049381,0,0,0.06049382716049381,23.411111111111104,0)" xlink:href="#bp"/><use transform="matrix(0.06049382716049381,0,0,0.06049382716049381,28.190123456790115,0)" xlink:href="#bp"/></g><path fill="#202124" d="M143 0L79-87 56-68V0H24v-261h32v163l83-92h37l-77 82L181 0h-38" id="bA"/><g id="ag"><use transform="matrix(0.06049382716049381,0,0,0.06049382716049381,0,0)" xlink:href="#bq"/><use transform="matrix(0.06049382716049381,0,0,0.06049382716049381,12.098765432098762,0)" xlink:href="#br"/><use transform="matrix(0.06049382716049381,0,0,0.06049382716049381,24.197530864197525,0)" xlink:href="#aY"/><use transform="matrix(0.06049382716049381,0,0,0.06049382716049381,35.08641975308641,0)" xlink:href="#bA"/><use transform="matrix(0.06049382716049381,0,0,0.06049382716049381,45.975308641975296,0)" xlink:href="#bz"/></g><g id="ah"><use transform="matrix(0.06049382716049381,0,0,0.06049382716049381,0,0)" xlink:href="#bi"/><use transform="matrix(0.06049382716049381,0,0,0.06049382716049381,15.667901234567898,0)" xlink:href="#bg"/><use transform="matrix(0.06049382716049381,0,0,0.06049382716049381,27.76666666666666,0)" xlink:href="#aZ"/><use transform="matrix(0.06049382716049381,0,0,0.06049382716049381,39.865432098765424,0)" xlink:href="#be"/></g><g id="ai"><use transform="matrix(0.06049382716049381,0,0,0.06049382716049381,0,0)" xlink:href="#be"/><use transform="matrix(0.06049382716049381,0,0,0.06049382716049381,12.098765432098762,0)" xlink:href="#aZ"/><use transform="matrix(0.06049382716049381,0,0,0.06049382716049381,24.197530864197525,0)" xlink:href="#aY"/><use transform="matrix(0.06049382716049381,0,0,0.06049382716049381,35.08641975308641,0)" xlink:href="#aZ"/><use transform="matrix(0.06049382716049381,0,0,0.06049382716049381,47.185185185185176,0)" xlink:href="#bf"/><use transform="matrix(0.06049382716049381,0,0,0.06049382716049381,58.07407407407406,0)" xlink:href="#bf"/><use transform="matrix(0.06049382716049381,0,0,0.06049382716049381,68.96296296296295,0)" xlink:href="#br"/><use transform="matrix(0.06049382716049381,0,0,0.06049382716049381,81.0617283950617,0)" xlink:href="#bh"/><use transform="matrix(0.06049382716049381,0,0,0.06049382716049381,88.26049382716047,0)" xlink:href="#bs"/><use transform="matrix(0.06049382716049381,0,0,0.06049382716049381,99.14938271604936,0)" xlink:href="#bu"/></g></defs></g></svg>